<svg width="35" height="34" viewBox="0 0 35 34" fill="none" xmlns="http://www.w3.org/2000/svg">
<g clip-path="url(#clip0_3234_21)">
<path d="M17.6 22.3125C20.534 22.3125 22.9125 19.934 22.9125 17C22.9125 14.066 20.534 11.6875 17.6 11.6875C14.666 11.6875 12.2875 14.066 12.2875 17C12.2875 19.934 14.666 22.3125 17.6 22.3125Z" stroke="white" stroke-linecap="round" stroke-linejoin="round"/>
<path d="M23.975 4.25H11.225C7.70422 4.25 4.85004 7.10418 4.85004 10.625V23.375C4.85004 26.8958 7.70422 29.75 11.225 29.75H23.975C27.4959 29.75 30.35 26.8958 30.35 23.375V10.625C30.35 7.10418 27.4959 4.25 23.975 4.25Z" stroke="white" stroke-linecap="round" stroke-linejoin="round"/>
<path d="M24.5063 11.4219C25.2398 11.4219 25.8344 10.8273 25.8344 10.0938C25.8344 9.36025 25.2398 8.76562 24.5063 8.76562C23.7728 8.76562 23.1782 9.36025 23.1782 10.0938C23.1782 10.8273 23.7728 11.4219 24.5063 11.4219Z" fill="white"/>
</g>
<defs>
<clipPath id="clip0_3234_21">
<rect width="34" height="34" fill="white" transform="translate(0.600037)"/>
</clipPath>
</defs>
</svg>
