<svg width="12" height="12" viewBox="0 0 12 12" fill="none" xmlns="http://www.w3.org/2000/svg">
<path d="M8.40625 5.5625C8.40625 6.03841 8.26513 6.50363 8.00073 6.89934C7.73632 7.29505 7.36052 7.60346 6.92083 7.78558C6.48115 7.96771 5.99733 8.01536 5.53057 7.92251C5.0638 7.82967 4.63505 7.6005 4.29853 7.26398C3.96201 6.92746 3.73283 6.4987 3.63999 6.03194C3.54714 5.56517 3.59479 5.08135 3.77692 4.64167C3.95904 4.20198 4.26746 3.82618 4.66316 3.56178C5.05887 3.29737 5.52409 3.15625 6 3.15625C6.63796 3.15697 7.24958 3.41072 7.70068 3.86182C8.15178 4.31293 8.40553 4.92454 8.40625 5.5625ZM11.6875 6C11.6875 7.12488 11.3539 8.2245 10.729 9.1598C10.104 10.0951 9.21577 10.8241 8.17651 11.2546C7.13726 11.685 5.99369 11.7977 4.89043 11.5782C3.78716 11.3588 2.77374 10.8171 1.97833 10.0217C1.18292 9.22626 0.64124 8.21284 0.421786 7.10958C0.202333 6.00631 0.314964 4.86274 0.745438 3.82349C1.17591 2.78423 1.90489 1.89597 2.8402 1.27102C3.7755 0.646066 4.87512 0.3125 6 0.3125C7.50793 0.314092 8.95365 0.913821 10.0199 1.98009C11.0862 3.04636 11.6859 4.49207 11.6875 6ZM10.8125 6C10.8118 5.35224 10.6805 4.71128 10.4264 4.11545C10.1723 3.51961 9.80063 2.98114 9.33365 2.53223C8.86667 2.08332 8.31395 1.7332 7.70856 1.50281C7.10316 1.27241 6.45752 1.16647 5.81024 1.19133C3.23446 1.29086 1.18039 3.43625 1.1875 6.01367C1.18997 7.18701 1.62272 8.31868 2.40375 9.1943C2.72183 8.73296 3.12587 8.33727 3.59375 8.02891C3.63364 8.00256 3.68107 7.99 3.72877 7.99317C3.77647 7.99633 3.82183 8.01503 3.85789 8.04641C4.45244 8.56066 5.21227 8.84367 5.99836 8.84367C6.78446 8.84367 7.54428 8.56066 8.13883 8.04641C8.1749 8.01503 8.22025 7.99633 8.26795 7.99317C8.31566 7.99 8.36308 8.00256 8.40297 8.02891C8.87145 8.33711 9.27605 8.7328 9.59461 9.1943C10.3795 8.31549 10.8131 7.17829 10.8125 6Z" fill="black"/>
</svg>
